<svg width="32" height="32" viewBox="0 0 32 32" fill="none" xmlns="http://www.w3.org/2000/svg">
<path d="M4 14L6.36012 25.9466C6.58402 27.1258 7.67341 27.9885 8.95292 28H23.0471C24.3267 27.9885 25.416 27.1258 25.6399 25.9466L28 14H4ZM11.6787 19.3512C11.6787 19.6948 11.3811 19.9734 11.0139 19.9734C10.6467 19.9734 10.349 19.6948 10.349 19.3512V17.4845C10.349 17.1408 10.6467 16.8623 11.0139 16.8623C11.3811 16.8623 11.6787 17.1408 11.6787 17.4845V19.3512ZM21.651 19.3512C21.651 19.6948 21.3534 19.9734 20.9862 19.9734C20.619 19.9734 20.3214 19.6948 20.3214 19.3512V17.4845C20.3214 17.1408 20.619 16.8623 20.9862 16.8623C21.3534 16.8623 21.651 17.1408 21.651 17.4845V19.3512Z" fill="black"/>
<path d="M11.4118 9.31249C11.4118 7.06885 13.466 5.25001 16 5.25001C18.534 5.25001 20.5882 7.06885 20.5882 9.31249V13H22V9.31249C22.0001 6.37847 19.3137 4 16 4C12.6863 4 10 6.37847 10 9.31249V13H11.4118V9.31249Z" fill="black"/>
</svg>
