<svg width="32" height="32" viewBox="0 0 32 32" fill="none" xmlns="http://www.w3.org/2000/svg">
<path d="M27.0769 12.5313H4.92308C4.41329 12.5313 4 12.8462 4 13.2345C4 13.6228 4.41329 13.9376 4.92308 13.9376H27.0769C27.5867 13.9376 28 13.6228 28 13.2345C28 12.8462 27.5867 12.5313 27.0769 12.5313Z" fill="black"/>
<path d="M9.80883 9.83099C9.44834 10.1056 9.44834 10.5508 9.80883 10.8254C10.1693 11.0999 10.7538 11.0999 11.1142 10.8254C12.6562 9.65095 12.7215 8.24245 11.1168 7.02041C10.2699 6.36473 10.2708 5.85337 11.1168 5.19838C11.4747 4.92365 11.4739 4.47988 11.1142 4.20595C10.7538 3.93135 10.1693 3.93135 9.80883 4.20595C8.26686 5.38035 8.20157 6.78885 9.80625 8.01088C10.651 8.66498 10.6534 9.17704 9.80883 9.83099Z" fill="black"/>
<path d="M15.3473 9.83099C14.9868 10.1056 14.9868 10.5508 15.3473 10.8254C15.7078 11.0999 16.2923 11.0999 16.6527 10.8254C18.1947 9.65095 18.26 8.24245 16.6553 7.02041C15.8084 6.36473 15.8093 5.85337 16.6553 5.19838C17.0132 4.92365 17.0124 4.47988 16.6527 4.20595C16.2923 3.93135 15.7078 3.93135 15.3473 4.20595C13.8053 5.38035 13.74 6.78885 15.3447 8.01088C16.1895 8.66498 16.1919 9.17704 15.3473 9.83099Z" fill="black"/>
<path d="M20.8858 9.83099C20.5253 10.1056 20.5253 10.5508 20.8858 10.8254C21.2463 11.0999 21.8308 11.0999 22.1912 10.8254C23.7332 9.65095 23.7985 8.24245 22.1938 7.02041C21.3469 6.36473 21.3478 5.85337 22.1938 5.19838C22.5517 4.92365 22.5509 4.47988 22.1912 4.20595C21.8308 3.93135 21.2463 3.93135 20.8858 4.20595C19.3438 5.38035 19.2785 6.78885 20.8832 8.01088C21.728 8.66498 21.7304 9.17704 20.8858 9.83099Z" fill="black"/>
<path d="M16 20.9688C20.6394 20.9688 24.5619 18.5866 25.7699 15.3438H6.23016C7.43816 18.5866 11.3606 20.9688 16 20.9688Z" fill="black"/>
<path d="M23.3846 26.5939H22.3206L21.1994 21.4714C20.6363 21.6786 20.0492 21.8535 19.4418 21.9922L19.8332 23.7814H12.1668L12.5582 21.9922C11.9508 21.8535 11.3637 21.6786 10.8006 21.4714L9.67938 26.5939H8.61538C8.10585 26.5939 7.69231 26.9089 7.69231 27.2971C7.69231 27.6852 8.10585 28.0002 8.61538 28.0002H10.4615C10.9126 28.0002 11.2978 27.7517 11.3723 27.4128L11.8591 25.1877H20.1409L20.6277 27.4128C20.7022 27.7517 21.0874 28.0002 21.5385 28.0002H23.3846C23.8942 28.0002 24.3077 27.6852 24.3077 27.2971C24.3077 26.9089 23.8942 26.5939 23.3846 26.5939Z" fill="black"/>
</svg>
