<svg width="32" height="32" viewBox="0 0 32 32" fill="none" xmlns="http://www.w3.org/2000/svg">
<path d="M4.28867 4.29367C4.67357 3.90211 5.29762 3.90211 5.68252 4.29367L27.3031 26.2884C27.688 26.6799 27.688 27.3148 27.3031 27.7063C26.9182 28.0979 26.2941 28.0979 25.9092 27.7063L4.28868 5.71164C3.90378 5.32008 3.90377 4.68523 4.28867 4.29367Z" fill="black"/>
<path d="M4.69692 27.7063C4.31202 27.3148 4.31202 26.6799 4.69692 26.2884L26.3175 4.29367C26.7024 3.90211 27.3264 3.90211 27.7113 4.29367C28.0962 4.68523 28.0962 5.32008 27.7113 5.71164L6.09077 27.7063C5.70587 28.0979 5.08182 28.0979 4.69692 27.7063Z" fill="black"/>
</svg>
