<svg width="32" height="32" viewBox="0 0 32 32" fill="none" xmlns="http://www.w3.org/2000/svg">
<path d="M5.62645 12.7211H12.802V6H4V14.802H5.62645V12.7211Z" fill="black"/>
<path d="M14.4284 16.8831C15.1947 16.8831 15.8158 16.2619 15.8158 15.4957C15.8158 14.7295 15.1947 14.1084 14.4284 14.1084H7.01369V16.8831H14.4284Z" fill="black"/>
<path d="M9.33371 22.4321C9.33371 23.9645 10.576 25.2068 12.1084 25.2068C13.6408 25.2068 14.883 23.9645 14.883 22.4321H9.33371Z" fill="black"/>
<path d="M24.9009 18.2704C25.0352 18.2704 25.168 18.277 25.299 18.2895L24.2983 12.9523H25.6844V11.5651H24.0382L23.7781 10.1777H18.3469V11.565H20.4853L21.8015 19.6577H16.7219L15.9157 17.8362C15.4855 18.1106 14.9754 18.2703 14.4284 18.2703H7.72201C7.4214 18.9014 7.25285 19.607 7.25285 20.3513V21.045H20.977C21.5497 19.4302 23.0923 18.2704 24.9009 18.2704Z" fill="black"/>
<path d="M27.6615 22.757C27.8484 21.2353 26.7664 19.8502 25.2448 19.6632C23.7231 19.4763 22.338 20.5583 22.151 22.08C21.9641 23.6016 23.0461 24.9868 24.5677 25.1737C26.0894 25.3607 27.4745 24.2787 27.6615 22.757Z" fill="black"/>
</svg>
