<svg width="32" height="32" viewBox="0 0 32 32" fill="none" xmlns="http://www.w3.org/2000/svg">
<path fill-rule="evenodd" clip-rule="evenodd" d="M27.0149 6.97015H25.8293C25.4175 5.82235 24.3062 5 23 5C21.6938 5 20.5825 5.82235 20.1707 6.97015H4.98508C4.44103 6.97015 4 7.41119 4 7.95523C4 8.49927 4.44103 8.9403 4.98507 8.9403H20.1707C20.5825 10.0881 21.6938 10.9105 23 10.9105C24.3062 10.9105 25.4175 10.0881 25.8293 8.9403H27.0149C27.559 8.9403 28 8.49927 28 7.95523C28 7.41119 27.559 6.97015 27.0149 6.97015ZM23 8.9403C23.5523 8.9403 24 8.49927 24 7.95523C24 7.41119 23.5523 6.97015 23 6.97015C22.4477 6.97015 22 7.41119 22 7.95523C22 8.49927 22.4477 8.9403 23 8.9403Z" fill="black"/>
<path fill-rule="evenodd" clip-rule="evenodd" d="M4.98508 16.985L6.17071 16.985C6.58255 18.1328 7.69378 18.9552 9 18.9552C10.3062 18.9552 11.4175 18.1328 11.8293 16.985L27.0149 16.985C27.559 16.985 28 16.544 28 16C28 15.4559 27.559 15.0149 27.0149 15.0149L11.8293 15.0149C11.4175 13.8671 10.3062 13.0447 9 13.0447C7.69379 13.0447 6.58255 13.8671 6.17071 15.0149L4.98508 15.0149C4.44104 15.0149 4 15.4559 4 16C4 16.544 4.44103 16.985 4.98508 16.985ZM9 15.0149C8.44772 15.0149 8 15.4559 8 16C8 16.544 8.44772 16.985 9 16.985C9.55229 16.985 10 16.544 10 16C10 15.4559 9.55229 15.0149 9 15.0149Z" fill="black"/>
<path fill-rule="evenodd" clip-rule="evenodd" d="M4.98508 25.0299L15.1707 25.0299C15.5825 26.1777 16.6938 27 18 27C19.3062 27 20.4174 26.1777 20.8293 25.0299L27.0149 25.0299C27.559 25.0299 28 24.5888 28 24.0448C28 23.5007 27.559 23.0597 27.0149 23.0597L20.8293 23.0597C20.4175 21.9119 19.3062 21.0895 18 21.0895C16.6938 21.0895 15.5825 21.9119 15.1707 23.0597L4.98508 23.0597C4.44104 23.0597 4 23.5007 4 24.0448C4 24.5888 4.44103 25.0299 4.98508 25.0299ZM18 23.0597C17.4477 23.0597 17 23.5007 17 24.0448C17 24.5888 17.4477 25.0299 18 25.0299C18.5523 25.0299 19 24.5888 19 24.0448C19 23.5007 18.5523 23.0597 18 23.0597Z" fill="black"/>
</svg>
