<svg width="32" height="32" viewBox="0 0 32 32" fill="none" xmlns="http://www.w3.org/2000/svg">
<path d="M16.7553 7.04594C16.7367 7.04594 16.6279 7.04631 16.4442 7.05222C13.6986 7.14063 10.393 7.8046 7.90431 9.01534C6.37555 9.75905 5.13411 10.6957 4.21452 11.7992C4.04079 12.0077 4.00254 12.2975 4.11626 12.544C4.58864 13.5674 5.25158 14.4489 6.08234 15.173L6.39899 14.6582C6.95303 13.6901 7.96253 12.3215 9.6323 11.2781C9.96157 11.0722 10.3954 11.1724 10.6013 11.5017C10.807 11.831 10.7069 12.2648 10.3776 12.4706C8.95033 13.3626 8.08732 14.5372 7.61466 15.3655C7.60505 15.3822 7.51322 15.531 7.22197 16.0046C8.84364 16.9879 10.8848 17.4595 12.7059 17.4595C12.9098 17.4595 13.0316 17.4524 13.0489 17.4513C13.3998 17.4294 13.6807 17.151 13.7064 16.8003C13.7101 16.7501 14.1117 11.7376 17.2779 8.21951C17.6844 7.7678 17.3628 7.04594 16.7553 7.04594Z" fill="black"/>
<path d="M19.3793 6.42647C19.5609 7.5286 20.3208 8.59923 21.5182 9.4366C22.7723 10.3136 24.4567 10.9033 26.2612 11.0971L27.173 11.1933C27.5538 10.1214 27.821 9.03903 27.9368 7.99991C28.0741 6.7818 28.0433 5.13496 27.0158 4.4559C25.7406 3.60864 23.186 4.12058 21.718 4.55129C20.8793 4.79754 20.0435 5.11358 19.2309 5.48668L19.3793 6.42647ZM22.546 7.35792C22.7667 7.03156 23.1984 6.95145 23.5211 7.16385C23.8739 7.40236 23.9319 7.8791 23.6744 8.19421C23.2863 8.65511 22.5608 8.46301 22.441 7.88576C22.4046 7.71185 22.439 7.52082 22.546 7.35792Z" fill="black"/>
<path d="M26.1122 12.4962C23.2856 12.1926 20.2031 10.9331 18.7137 8.5316C18.6231 8.75872 18.4925 8.97211 18.3232 9.16022C15.5236 12.2709 15.1155 16.8258 15.1086 16.9084C15.0288 17.9591 14.1856 18.7893 13.1376 18.8548C12.4678 18.8971 11.3058 18.8368 10.1398 18.5997C10.1063 18.9599 10.0811 19.3094 10.0645 19.6378C9.30565 19.8886 7.44988 20.331 4.8458 19.8101C4.41125 19.7229 4.00473 20.056 4.00473 20.4996C4.00473 22.6833 4.97776 24.5779 7.10031 24.9044C7.42695 27.0282 9.32314 27.9999 11.5051 27.9999C11.9479 27.9999 12.2816 27.5944 12.1946 27.1589C11.6734 24.5532 12.1165 22.697 12.3672 21.9392C12.9367 21.9105 13.5688 21.8586 14.2109 21.7782C14.5161 23.5113 15.3677 24.9237 15.4088 24.991C15.5684 25.2527 15.8777 25.3792 16.1728 25.3086C16.3343 25.2699 20.1423 24.3293 21.3001 21.5443C21.66 20.6782 21.8709 19.7772 21.9171 18.9167C23.7146 17.5331 25.469 15.1432 26.6286 12.5506L26.1122 12.4962Z" fill="black"/>
</svg>
