<svg width="32" height="32" viewBox="0 0 32 32" fill="none" xmlns="http://www.w3.org/2000/svg">
<path d="M4 18.6818C4 17.4316 5.01346 16.4182 6.26364 16.4182H25.7364C26.9865 16.4182 28 17.4316 28 18.6818C28 19.932 26.9865 20.9455 25.7364 20.9455H6.26364C5.01346 20.9455 4 19.932 4 18.6818Z" fill="black"/>
<path d="M4.76364 23.2364C4.76364 22.7544 5.15437 22.3636 5.63636 22.3636H26.4182C26.9002 22.3636 27.2909 22.7544 27.2909 23.2364V23.8909C27.2909 25.5779 25.9233 26.9455 24.2364 26.9455H7.81818C6.1312 26.9455 4.76364 25.5779 4.76364 23.8909V23.2364Z" fill="black"/>
<path fill-rule="evenodd" clip-rule="evenodd" d="M27.3182 12.4091C26.5839 10.5641 25.1032 8.96009 23.0804 7.80488C21.0575 6.64966 18.6043 6.01746 16.078 6.00036C13.5517 5.98325 11.0841 6.58212 9.03476 7.70976C6.98539 8.8374 5.48614 10.5471 4.70909 12.3818V12.8182C4.70909 13.9983 5.62311 14.9649 6.78182 15.0486V15.0545H25.2182V15.0487C26.3809 14.9655 27.3018 14.002 27.314 12.8183L27.3182 12.4091ZM10.0545 11.2364C10.4763 11.2364 10.8182 10.8945 10.8182 10.4727C10.8182 10.051 10.4763 9.70909 10.0545 9.70909C9.6328 9.70909 9.29091 10.051 9.29091 10.4727C9.29091 10.8945 9.6328 11.2364 10.0545 11.2364ZM16.7636 8.94545C16.7636 9.3672 16.4217 9.70909 16 9.70909C15.5783 9.70909 15.2364 9.3672 15.2364 8.94545C15.2364 8.52371 15.5783 8.18182 16 8.18182C16.4217 8.18182 16.7636 8.52371 16.7636 8.94545ZM22 11.2364C22.4217 11.2364 22.7636 10.8945 22.7636 10.4727C22.7636 10.051 22.4217 9.70909 22 9.70909C21.5783 9.70909 21.2364 10.051 21.2364 10.4727C21.2364 10.8945 21.5783 11.2364 22 11.2364Z" fill="black"/>
</svg>
