<svg width="32" height="32" viewBox="0 0 32 32" fill="none" xmlns="http://www.w3.org/2000/svg">
<path d="M26.0961 7.0896C24.8537 5.74213 23.149 5 21.2956 5C19.9102 5 18.6415 5.43799 17.5245 6.3017C16.9609 6.73767 16.4503 7.27106 16 7.89362C15.5499 7.27124 15.0391 6.73767 14.4753 6.3017C13.3585 5.43799 12.0898 5 10.7044 5C8.85101 5 7.14612 5.74213 5.90375 7.0896C4.67621 8.42133 4 10.2407 4 12.2127C4 14.2424 4.75641 16.1004 6.38037 18.06C7.83313 19.8129 9.92108 21.5923 12.339 23.6528C13.1646 24.3564 14.1005 25.1541 15.0722 26.0037C15.3289 26.2285 15.6583 26.3523 16 26.3523C16.3415 26.3523 16.6711 26.2285 16.9274 26.004C17.8992 25.1542 18.8356 24.3563 19.6616 23.6522C22.0791 21.5921 24.1671 19.8129 25.6198 18.0598C27.2438 16.1004 28 14.2424 28 12.2125C28 10.2407 27.3238 8.42133 26.0961 7.0896Z" fill="black"/>
</svg>
