<svg width="32" height="32" viewBox="0 0 32 32" fill="none" xmlns="http://www.w3.org/2000/svg">
<path d="M26.5562 25.4109C24.0026 25.4109 21.1817 25.4109 20.3859 25.4109V23.9171H26.0655C25.5885 22.465 25.1671 21.1821 25.166 21.1785C24.6897 21.1785 23.0208 21.1785 20.8803 21.1785C19.594 22.4058 18.4047 23.5344 17.3394 24.9948L16.2032 26.5522L15.0672 24.9947C13.9922 23.521 12.7771 22.3726 11.5265 21.1785C9.05314 21.1785 7.24287 21.1785 7.24067 21.1785C7.23327 21.2011 6.81453 22.4758 6.34114 23.9171H12.0207V25.4109C10.9243 25.4109 8.15619 25.4109 5.85045 25.4109C5.3998 26.7827 5.01106 27.9662 5 28H27.4066C27.3957 27.9668 27.0069 26.783 26.5562 25.4109Z" fill="black"/>
<path d="M16.2033 24.166C19.5931 19.5193 24.4191 17.7265 24.4191 12.2157C24.4191 7.50789 20.9112 4 16.2033 4C11.497 4 7.98753 7.50789 7.98753 12.2158C7.98753 17.7258 12.8151 19.5208 16.2033 24.166ZM16.2033 10.2838C17.4376 10.2838 18.444 11.2901 18.444 12.5245C18.444 13.7583 17.4376 14.7652 16.2033 14.7652C14.9689 14.7652 13.9626 13.7583 13.9626 12.5245C13.9626 11.2901 14.9689 10.2838 16.2033 10.2838Z" fill="black"/>
</svg>
