<svg width="182" height="32" viewBox="0 0 182 32" fill="none" xmlns="http://www.w3.org/2000/svg">
<path d="M27.721 12.5337L25.8009 6.30215C25.7192 5.93206 25.52 5.60184 25.2358 5.36536C24.9516 5.12888 24.5992 5.00009 24.2361 5H7.74692C7.38755 5.00026 7.03865 5.12655 6.756 5.35867C6.47335 5.59078 6.27328 5.91533 6.18777 6.28041L4.16844 12.8203L4.12119 12.9686C4.00441 13.3856 3.97155 13.8235 4.02469 14.2545C4.07784 14.6855 4.21583 15.1002 4.42996 15.4727C4.64409 15.8451 4.92971 16.167 5.26879 16.4181C5.60787 16.6693 5.99304 16.8441 6.39999 16.9317C6.80695 17.0193 7.22684 17.0177 7.63317 16.927C8.0395 16.8363 8.42344 16.6585 8.76076 16.4048C9.09807 16.1511 9.38144 15.827 9.59297 15.4529C9.80449 15.0789 9.93959 14.6631 9.98972 14.2317H10.0176C10.1058 14.9946 10.4581 15.6973 11.0079 16.207C11.5577 16.7168 12.267 16.9982 13.0017 16.9982C13.7364 16.9982 14.4457 16.7168 14.9955 16.207C15.5453 15.6973 15.8976 14.9946 15.9858 14.2317H16.0146C16.1024 14.9948 16.4544 15.6978 17.0041 16.2077C17.5539 16.7177 18.2632 16.9994 18.998 16.9994C19.7329 16.9994 20.4422 16.7177 20.9919 16.2077C21.5417 15.6978 21.8937 14.9948 21.9814 14.2317H22.0107C22.0626 14.683 22.2074 15.1172 22.4352 15.5043C22.663 15.8914 22.9684 16.2222 23.3303 16.4739C23.6921 16.7257 24.1019 16.8923 24.5313 16.9624C24.9607 17.0325 25.3995 17.0043 25.8175 16.8799C26.2355 16.7554 26.6227 16.5376 26.9524 16.2415C27.2821 15.9454 27.5466 15.578 27.7274 15.1647C27.9083 14.7514 28.0013 14.3019 28 13.8474C27.9987 13.3928 27.9032 12.9439 27.72 12.5317L27.721 12.5337Z" fill="black"/>
<path d="M25.1843 18.2354C24.7129 18.236 24.2449 18.1604 23.8013 18.0121V24.3988C23.8013 24.5455 23.7387 24.6861 23.6274 24.7898C23.5161 24.8935 23.365 24.9518 23.2076 24.9518H8.84372C8.68626 24.9518 8.53526 24.8935 8.42392 24.7898C8.31258 24.6861 8.25004 24.5455 8.25004 24.3988V18C7.53041 18.2468 6.75091 18.3008 6 18.1559V24.4578C5.99994 24.7917 6.0705 25.1223 6.20765 25.4307C6.3448 25.7392 6.54586 26.0195 6.79934 26.2555C7.05281 26.4916 7.35375 26.6789 7.68494 26.8066C8.01614 26.9343 8.37111 27.0001 8.72958 27H23.2709C23.6293 27 23.9842 26.9342 24.3154 26.8065C24.6465 26.6787 24.9474 26.4914 25.2008 26.2554C25.4543 26.0193 25.6553 25.7391 25.7924 25.4306C25.9295 25.1222 26.0001 24.7916 26 24.4578V18.1603C25.7315 18.2108 25.4582 18.2359 25.1843 18.2354Z" fill="black"/>
<path d="M37.776 24V6.96H41.088V21.096H49.776V24H37.776ZM55.179 24.24C53.883 24.24 52.899 23.824 52.227 22.992C51.555 22.16 51.219 20.928 51.219 19.296V11.424H54.435V18.6C54.435 20.536 55.131 21.504 56.523 21.504C57.147 21.504 57.747 21.32 58.323 20.952C58.915 20.568 59.395 19.992 59.763 19.224V11.424H62.979V20.304C62.979 20.64 63.035 20.88 63.147 21.024C63.275 21.168 63.475 21.248 63.747 21.264V24C63.427 24.064 63.155 24.104 62.931 24.12C62.723 24.136 62.531 24.144 62.355 24.144C61.779 24.144 61.307 24.016 60.939 23.76C60.587 23.488 60.379 23.12 60.315 22.656L60.243 21.648C59.683 22.512 58.963 23.16 58.083 23.592C57.203 24.024 56.235 24.24 55.179 24.24ZM74.7669 24L71.1189 18.552L69.3909 20.256V24H66.1749V6.48H69.3909V17.112L74.4309 11.448H77.8629L73.1829 16.776L78.1989 24H74.7669ZM82.8257 24.24C82.2177 24.24 81.6497 24.144 81.1217 23.952C80.5937 23.744 80.1377 23.464 79.7537 23.112C79.3697 22.744 79.0657 22.32 78.8417 21.84C78.6337 21.36 78.5297 20.832 78.5297 20.256C78.5297 19.664 78.6577 19.12 78.9137 18.624C79.1857 18.112 79.5537 17.68 80.0177 17.328C80.4977 16.976 81.0657 16.704 81.7217 16.512C82.3777 16.304 83.0977 16.2 83.8817 16.2C84.4417 16.2 84.9857 16.248 85.5137 16.344C86.0577 16.44 86.5377 16.576 86.9537 16.752V16.032C86.9537 15.2 86.7137 14.56 86.2337 14.112C85.7697 13.664 85.0737 13.44 84.1457 13.44C83.4737 13.44 82.8177 13.56 82.1777 13.8C81.5377 14.04 80.8817 14.392 80.2097 14.856L79.2257 12.816C80.8417 11.744 82.5857 11.208 84.4577 11.208C86.2657 11.208 87.6657 11.656 88.6577 12.552C89.6657 13.432 90.1697 14.712 90.1697 16.392V20.304C90.1697 20.64 90.2257 20.88 90.3377 21.024C90.4657 21.168 90.6657 21.248 90.9377 21.264V24C90.3937 24.112 89.9217 24.168 89.5217 24.168C88.9137 24.168 88.4417 24.032 88.1057 23.76C87.7857 23.488 87.5857 23.128 87.5057 22.68L87.4337 21.984C86.8737 22.72 86.1937 23.28 85.3937 23.664C84.5937 24.048 83.7377 24.24 82.8257 24.24ZM83.7377 21.888C84.2817 21.888 84.7937 21.792 85.2737 21.6C85.7697 21.408 86.1537 21.152 86.4257 20.832C86.7777 20.56 86.9537 20.256 86.9537 19.92V18.48C86.5697 18.336 86.1537 18.224 85.7057 18.144C85.2577 18.048 84.8257 18 84.4097 18C83.5777 18 82.8977 18.192 82.3697 18.576C81.8417 18.944 81.5777 19.416 81.5777 19.992C81.5777 20.536 81.7857 20.992 82.2017 21.36C82.6177 21.712 83.1297 21.888 83.7377 21.888ZM113.149 24V12.72L108.757 21.12H106.957L102.565 12.72V24H99.2526V6.96H102.805L107.845 16.656L112.933 6.96H116.461V24H113.149ZM123.021 24.24C122.413 24.24 121.845 24.144 121.317 23.952C120.789 23.744 120.333 23.464 119.949 23.112C119.565 22.744 119.261 22.32 119.037 21.84C118.829 21.36 118.725 20.832 118.725 20.256C118.725 19.664 118.853 19.12 119.109 18.624C119.381 18.112 119.749 17.68 120.213 17.328C120.693 16.976 121.261 16.704 121.917 16.512C122.573 16.304 123.293 16.2 124.077 16.2C124.637 16.2 125.181 16.248 125.709 16.344C126.253 16.44 126.733 16.576 127.149 16.752V16.032C127.149 15.2 126.909 14.56 126.429 14.112C125.965 13.664 125.269 13.44 124.341 13.44C123.669 13.44 123.013 13.56 122.373 13.8C121.733 14.04 121.077 14.392 120.405 14.856L119.421 12.816C121.037 11.744 122.781 11.208 124.653 11.208C126.461 11.208 127.861 11.656 128.853 12.552C129.861 13.432 130.365 14.712 130.365 16.392V20.304C130.365 20.64 130.421 20.88 130.533 21.024C130.661 21.168 130.861 21.248 131.133 21.264V24C130.589 24.112 130.117 24.168 129.717 24.168C129.109 24.168 128.637 24.032 128.301 23.76C127.981 23.488 127.781 23.128 127.701 22.68L127.629 21.984C127.069 22.72 126.389 23.28 125.589 23.664C124.789 24.048 123.933 24.24 123.021 24.24ZM123.933 21.888C124.477 21.888 124.989 21.792 125.469 21.6C125.965 21.408 126.349 21.152 126.621 20.832C126.973 20.56 127.149 20.256 127.149 19.92V18.48C126.765 18.336 126.349 18.224 125.901 18.144C125.453 18.048 125.021 18 124.605 18C123.773 18 123.093 18.192 122.565 18.576C122.037 18.944 121.773 19.416 121.773 19.992C121.773 20.536 121.981 20.992 122.397 21.36C122.813 21.712 123.325 21.888 123.933 21.888ZM140.858 14.208C139.882 14.224 139.01 14.416 138.242 14.784C137.474 15.136 136.922 15.672 136.586 16.392V24H133.37V11.424H136.322V14.112C136.546 13.68 136.81 13.296 137.114 12.96C137.418 12.608 137.746 12.304 138.098 12.048C138.45 11.792 138.802 11.6 139.154 11.472C139.522 11.328 139.874 11.256 140.21 11.256C140.386 11.256 140.514 11.256 140.594 11.256C140.69 11.256 140.778 11.264 140.858 11.28V14.208ZM151.244 24L147.596 18.552L145.868 20.256V24H142.652V6.48H145.868V17.112L150.908 11.448H154.34L149.66 16.776L154.676 24H151.244ZM161.21 24.24C160.202 24.24 159.29 24.072 158.474 23.736C157.658 23.384 156.962 22.912 156.386 22.32C155.81 21.728 155.362 21.04 155.042 20.256C154.738 19.472 154.586 18.648 154.586 17.784C154.586 16.888 154.738 16.048 155.042 15.264C155.346 14.464 155.786 13.768 156.362 13.176C156.938 12.568 157.634 12.088 158.45 11.736C159.282 11.384 160.21 11.208 161.234 11.208C162.258 11.208 163.17 11.384 163.97 11.736C164.786 12.088 165.474 12.56 166.034 13.152C166.61 13.744 167.042 14.432 167.33 15.216C167.634 16 167.786 16.816 167.786 17.664C167.786 17.872 167.778 18.072 167.762 18.264C167.762 18.456 167.746 18.616 167.714 18.744H157.994C158.042 19.24 158.162 19.68 158.354 20.064C158.546 20.448 158.794 20.776 159.098 21.048C159.402 21.32 159.746 21.528 160.13 21.672C160.514 21.816 160.914 21.888 161.33 21.888C161.97 21.888 162.57 21.736 163.13 21.432C163.706 21.112 164.098 20.696 164.306 20.184L167.066 20.952C166.602 21.912 165.858 22.704 164.834 23.328C163.826 23.936 162.618 24.24 161.21 24.24ZM164.474 16.656C164.394 15.712 164.042 14.96 163.418 14.4C162.81 13.824 162.066 13.536 161.186 13.536C160.754 13.536 160.346 13.616 159.962 13.776C159.594 13.92 159.266 14.128 158.978 14.4C158.69 14.672 158.45 15 158.258 15.384C158.082 15.768 157.978 16.192 157.946 16.656H164.474ZM177.188 23.352C176.756 23.544 176.228 23.736 175.604 23.928C174.98 24.12 174.324 24.216 173.636 24.216C173.188 24.216 172.764 24.16 172.364 24.048C171.98 23.936 171.636 23.76 171.332 23.52C171.044 23.264 170.812 22.944 170.636 22.56C170.46 22.16 170.372 21.68 170.372 21.12V13.896H168.716V11.424H170.372V7.344H173.588V11.424H176.228V13.896H173.588V20.04C173.588 20.488 173.7 20.808 173.924 21C174.164 21.176 174.452 21.264 174.788 21.264C175.124 21.264 175.452 21.208 175.772 21.096C176.092 20.984 176.348 20.888 176.54 20.808L177.188 23.352Z" fill="black"/>
</svg>
