<svg width="32" height="32" viewBox="0 0 32 32" fill="none" xmlns="http://www.w3.org/2000/svg">
<path d="M25.1843 18.2354C24.7129 18.236 24.2449 18.1604 23.8013 18.0121V24.3988C23.8013 24.5455 23.7387 24.6861 23.6274 24.7898C23.5161 24.8935 23.365 24.9518 23.2076 24.9518H8.84372C8.68626 24.9518 8.53526 24.8935 8.42392 24.7898C8.31258 24.6861 8.25004 24.5455 8.25004 24.3988V18C7.53041 18.2468 6.75091 18.3008 6 18.1559V24.4578C5.99994 24.7917 6.0705 25.1223 6.20765 25.4307C6.3448 25.7392 6.54586 26.0195 6.79934 26.2555C7.05281 26.4916 7.35375 26.6789 7.68494 26.8066C8.01614 26.9343 8.37111 27.0001 8.72958 27H23.2709C23.6293 27 23.9842 26.9342 24.3154 26.8065C24.6465 26.6787 24.9474 26.4914 25.2008 26.2554C25.4543 26.0193 25.6553 25.7391 25.7924 25.4306C25.9295 25.1222 26.0001 24.7916 26 24.4578V18.1603C25.7315 18.2108 25.4582 18.2359 25.1843 18.2354Z" fill="black"/>
<path d="M27.721 12.5337L25.8009 6.30215C25.7192 5.93206 25.52 5.60184 25.2358 5.36536C24.9516 5.12888 24.5992 5.00009 24.2361 5H7.74692C7.38755 5.00026 7.03865 5.12655 6.756 5.35867C6.47335 5.59078 6.27328 5.91533 6.18777 6.28041L4.16844 12.8203L4.12119 12.9686C4.00441 13.3856 3.97155 13.8235 4.02469 14.2545C4.07784 14.6855 4.21583 15.1002 4.42996 15.4727C4.64409 15.8451 4.92971 16.167 5.26879 16.4181C5.60787 16.6693 5.99304 16.8441 6.39999 16.9317C6.80695 17.0193 7.22684 17.0177 7.63317 16.927C8.0395 16.8363 8.42344 16.6585 8.76076 16.4048C9.09807 16.1511 9.38144 15.827 9.59297 15.4529C9.80449 15.0789 9.93959 14.6631 9.98972 14.2317H10.0176C10.1058 14.9946 10.4581 15.6973 11.0079 16.207C11.5577 16.7168 12.267 16.9982 13.0017 16.9982C13.7364 16.9982 14.4457 16.7168 14.9955 16.207C15.5453 15.6973 15.8976 14.9946 15.9858 14.2317H16.0146C16.1024 14.9948 16.4544 15.6978 17.0041 16.2077C17.5539 16.7177 18.2632 16.9994 18.998 16.9994C19.7329 16.9994 20.4422 16.7177 20.9919 16.2077C21.5417 15.6978 21.8937 14.9948 21.9814 14.2317H22.0107C22.0626 14.683 22.2074 15.1172 22.4352 15.5043C22.663 15.8914 22.9684 16.2222 23.3303 16.4739C23.6921 16.7257 24.1019 16.8923 24.5313 16.9624C24.9607 17.0325 25.3995 17.0043 25.8175 16.8799C26.2355 16.7554 26.6227 16.5376 26.9524 16.2415C27.2821 15.9454 27.5466 15.578 27.7274 15.1647C27.9083 14.7514 28.0013 14.3019 28 13.8474C27.9987 13.3928 27.9032 12.9439 27.72 12.5317L27.721 12.5337Z" fill="black"/>
</svg>
