<svg width="32" height="32" viewBox="0 0 32 32" fill="none" xmlns="http://www.w3.org/2000/svg">
<path d="M28 17.5789C28 18.9748 27.5786 20.3135 26.8284 21.3006C26.0783 22.2876 25.0609 22.8421 24 22.8421H11.2C9.29044 22.8421 7.45909 21.844 6.10883 20.0673C4.75857 18.2907 4 15.881 4 13.3684V16.5263C4 19.0389 4.75857 21.4486 6.10883 23.2252C7.45909 25.0019 9.29044 26 11.2 26H24C24.5253 26 25.0454 25.8639 25.5307 25.5994C26.016 25.3349 26.457 24.9472 26.8284 24.4585C27.1999 23.9697 27.4945 23.3895 27.6955 22.751C27.8965 22.1124 28 21.428 28 20.7368V17.5789Z" fill="black"/>
<path d="M12.4 13.3684C12.4 14.2404 11.8627 14.9474 11.2 14.9474C10.5373 14.9474 10 14.2404 10 13.3684C10 12.4964 10.5373 11.7895 11.2 11.7895C11.8627 11.7895 12.4 12.4964 12.4 13.3684Z" fill="black"/>
<path fill-rule="evenodd" clip-rule="evenodd" d="M11.2 20.7369C9.71479 20.7369 8.29041 19.9606 7.2402 18.5787C6.19 17.1969 5.6 15.3227 5.6 13.3685C5.6 11.4142 6.19 9.54004 7.2402 8.15819C8.29041 6.77635 9.71479 6.00003 11.2 6.00003H12.553C13.3938 5.997 14.2267 6.21343 15.0035 6.6368C15.7803 7.06017 16.4855 7.68206 17.0785 8.46648L19.9635 12.2629C20.4823 12.9493 21.0994 13.4934 21.7792 13.8638C22.4589 14.2342 23.1877 14.4235 23.9235 14.4208H24C24.6365 14.4208 25.247 14.7535 25.6971 15.3457C26.1471 15.938 26.4 16.7412 26.4 17.5787C26.4 18.4162 26.1471 19.2195 25.6971 19.8117C25.247 20.4039 24.6365 20.7366 24 20.7366L11.2 20.7369ZM11.2 16.5263C12.5255 16.5263 13.6 15.1125 13.6 13.3684C13.6 11.6244 12.5255 10.2105 11.2 10.2105C9.87452 10.2105 8.8 11.6244 8.8 13.3684C8.8 15.1125 9.87452 16.5263 11.2 16.5263Z" fill="black"/>
</svg>
