<svg width="32" height="32" viewBox="0 0 32 32" fill="none" xmlns="http://www.w3.org/2000/svg">
<path d="M22.7602 18.2349C20.7756 18.4373 21.877 16.9393 21.398 16.3627C20.6167 16.5074 19.9647 17.5724 19.0305 16.3762C18.3085 15.4514 17.034 14.7108 17.3138 13.4638C17.9279 10.7209 19.2913 9.7486 22.2587 9.50891C22.3903 9.02049 21.321 8.98883 21.8035 8.32291C22.7092 7.08376 21.5806 6.76606 20.8052 6.93678C18.6523 7.41616 17.6007 6.06734 16.3914 4.87907C16.1128 4.60208 15.8306 4.29455 15.4833 4.12722C15.1169 3.94858 14.7044 3.85587 14.8051 4.56703C15.0185 6.08769 14.0511 6.86781 12.7269 7.39694C11.8804 7.73725 10.9118 7.96337 10.7102 9.02049C10.4518 10.3761 9.79379 10.1059 8.76354 9.6672C7.9218 9.30653 9.11921 8.58408 8.1435 8.39866C7.34325 8.97187 6.82634 9.4603 7.05397 10.8589C7.28397 12.2846 8.48968 12.531 9.09194 13.4219C10.7837 15.9228 12.2799 18.5933 13.4097 21.2831C14.376 23.5838 15.9622 24.572 17.9338 25.4991C19.232 26.1051 20.4093 26.814 21.2012 28C21.6695 28 22.1354 28 22.6037 28C22.8906 26.4465 23.8877 25.0921 23.4964 23.2831C23.3577 22.6454 23.5735 21.3498 23.947 20.3616C24.2279 19.6109 23.3281 18.1795 22.7602 18.2349Z" fill="black"/>
</svg>
