<svg width="32" height="32" viewBox="0 0 32 32" fill="none" xmlns="http://www.w3.org/2000/svg">
<path d="M13.9395 18.062C11.6487 15.7713 11.1315 13.4805 11.0148 12.5627C10.9822 12.3089 11.0695 12.0544 11.2511 11.8741L13.1049 10.0212C13.3775 9.74865 13.4259 9.32393 13.2215 8.99704L10.27 4.41387C10.0438 4.0519 9.57952 3.92127 9.19782 4.11222L4.45947 6.3438C4.15081 6.49579 3.96926 6.82374 4.0043 7.16601C4.25258 9.52463 5.28085 15.3227 10.9788 21.021C16.6767 26.7194 22.474 27.7472 24.8338 27.9955C25.1761 28.0306 25.504 27.849 25.656 27.5404L27.8876 22.802C28.0778 22.4211 27.9481 21.9581 27.5876 21.7315L23.0044 18.7808C22.6777 18.5762 22.253 18.6242 21.9803 18.8966L20.1273 20.7504C19.9471 20.932 19.6926 21.0193 19.4388 20.9867C18.521 20.87 16.2302 20.3528 13.9395 18.062Z" fill="black"/>
<path d="M23.0359 16.8276C22.5788 16.8276 22.2083 16.4571 22.2083 16C22.2044 12.5736 19.4278 9.79699 16.0014 9.79311C15.5444 9.79311 15.1738 9.42259 15.1738 8.96553C15.1738 8.50846 15.5444 8.13794 16.0014 8.13794C20.3415 8.14273 23.8587 11.6599 23.8635 16C23.8635 16.4571 23.493 16.8276 23.0359 16.8276Z" fill="black"/>
<path d="M27.1738 16.8276C26.7168 16.8276 26.3462 16.4571 26.3462 16C26.3399 10.2894 21.7121 5.66156 16.0014 5.65517C15.5444 5.65517 15.1738 5.28465 15.1738 4.82759C15.1738 4.37052 15.5444 4 16.0014 4C22.6258 4.0073 27.9941 9.37561 28.0014 16C28.0014 16.2195 27.9142 16.43 27.759 16.5852C27.6038 16.7404 27.3933 16.8276 27.1738 16.8276Z" fill="black"/>
</svg>
