<svg width="32" height="32" viewBox="0 0 32 32" fill="none" xmlns="http://www.w3.org/2000/svg">
<path d="M28 20.2422C28 17.264 26.2914 14.606 23.7325 13.3131C23.6531 19.0234 19.0234 23.6531 13.3131 23.7325C14.606 26.2914 17.264 28 20.2422 28C21.6385 28 22.9965 27.6281 24.1896 26.9215L27.9661 27.9661L26.9215 24.1896C27.6281 22.9965 28 21.6385 28 20.2422Z" fill="black"/>
<path d="M22.3281 13.1641C22.3281 8.1109 18.2172 4 13.1641 4C8.1109 4 4 8.1109 4 13.1641C4 14.8109 4.43835 16.4144 5.27075 17.8221L4.03369 22.2943L8.50604 21.0574C9.91376 21.8898 11.5172 22.3281 13.1641 22.3281C18.2172 22.3281 22.3281 18.2172 22.3281 13.1641ZM11.7578 11.0312H10.3516C10.3516 9.48035 11.6132 8.21875 13.1641 8.21875C14.715 8.21875 15.9766 9.48035 15.9766 11.0312C15.9766 11.8184 15.6433 12.575 15.062 13.1068L13.8672 14.2003V15.2969H12.4609V13.581L14.1125 12.0693C14.4077 11.7992 14.5703 11.4306 14.5703 11.0312C14.5703 10.2558 13.9395 9.625 13.1641 9.625C12.3886 9.625 11.7578 10.2558 11.7578 11.0312ZM12.4609 16.7031H13.8672V18.1094H12.4609V16.7031Z" fill="black"/>
</svg>
