<svg width="32" height="32" viewBox="0 0 32 32" fill="none" xmlns="http://www.w3.org/2000/svg">
<path d="M27.2969 17.6875H4.70311C4.48083 17.6875 4.27168 17.7926 4.13902 17.9709C4.00632 18.1493 3.96577 18.3798 4.02966 18.5927L4.53394 20.2737C4.84041 21.2951 5.45461 22.1716 6.31022 22.8081C7.16583 23.4447 8.1818 23.7812 9.24825 23.7812H22.7517C23.8182 23.7812 24.8341 23.4447 25.6898 22.8081C26.5454 22.1716 27.1596 21.2951 27.466 20.2737L27.9704 18.5927C28.0342 18.3798 27.9937 18.1493 27.861 17.9709C27.7283 17.7926 27.5191 17.6875 27.2969 17.6875Z" fill="black"/>
<path d="M8.73438 25.1875V26.125C8.73438 26.5133 9.04919 26.8281 9.4375 26.8281H22.5625C22.9508 26.8281 23.2656 26.5133 23.2656 26.125V25.1875H8.73438Z" fill="black"/>
<path d="M17.449 16.2812C17.5426 15.9535 17.5938 15.6078 17.5938 15.25C17.5938 13.1789 15.9148 11.5 13.8438 11.5C12.8486 11.5 11.9446 11.8881 11.2735 12.5208L15.0339 16.2812H17.449Z" fill="black"/>
<path d="M8.68319 16.2812V14.3198L6.7218 16.2812H8.68319Z" fill="black"/>
<path d="M7.68881 13.3254H4.00008C4.12059 14.2535 4.48069 15.1562 5.08031 15.9339L7.68881 13.3254Z" fill="black"/>
<path d="M8.68323 11.9193L6.07923 9.31526C5.77384 9.00987 5.27008 9.05112 5.01339 9.39846C4.45356 10.156 4.11592 11.026 4 11.9193H8.68323Z" fill="black"/>
<path d="M10.0894 13.3254V16.2812H13.0452L10.0894 13.3254Z" fill="black"/>
<path d="M28 11.5C28 9.78142 26.7604 8.34686 25.1284 8.04348C24.825 6.41148 23.3904 5.17188 21.6719 5.17188C19.9533 5.17188 18.5187 6.41148 18.2153 8.04348C16.9563 8.27753 15.9315 9.18512 15.5285 10.3767C17.5468 11.0764 19 12.9966 19 15.25C19 15.5963 18.9644 15.9417 18.8951 16.2812H20.9687V13.7513L19.0544 12.475C18.7313 12.2596 18.644 11.8231 18.8594 11.5C19.0748 11.1768 19.5113 11.0896 19.8344 11.305L20.9687 12.0612V9.17613C20.9687 8.79752 21.2597 8.47173 21.6379 8.45392C22.0417 8.43489 22.375 8.75664 22.375 9.15625V12.0612L23.5093 11.305C23.8324 11.0896 24.269 11.1769 24.4844 11.5C24.6998 11.8231 24.6125 12.2597 24.2894 12.475L22.375 13.7513V16.2812H26.883C27.002 15.9518 27.0625 15.6062 27.0625 15.25C27.0625 14.8554 26.9863 14.4696 26.839 14.1086C27.5754 13.4491 28 12.5132 28 11.5Z" fill="black"/>
</svg>
