<svg width="32" height="32" viewBox="0 0 32 32" fill="none" xmlns="http://www.w3.org/2000/svg">
<path d="M20.7202 18.2416C23.6587 14.1734 22.6759 8.54026 18.5264 5.66002C14.3769 2.77977 8.63108 3.74261 5.69322 7.81143C2.75537 11.8796 3.73746 17.512 7.88767 20.3923C10.8494 22.448 14.7651 22.6063 17.889 20.7977L24.6766 27.4122C25.4095 28.1686 26.6289 28.1989 27.4004 27.4804C28.1719 26.7625 28.2028 25.5671 27.4706 24.8107C27.4474 24.7866 27.425 24.7646 27.4004 24.7419L20.7202 18.2416ZM13.2011 18.8582C9.92206 18.8589 7.26359 16.2546 7.26149 13.0399C7.26078 9.82519 9.91714 7.21886 13.1969 7.21748C16.4717 7.21611 19.1287 9.81624 19.1351 13.0268C19.1407 16.2423 16.4857 18.8527 13.2053 18.8582C13.2039 18.8582 13.2032 18.8582 13.2011 18.8582Z" fill="black"/>
</svg>
