<svg width="32" height="32" viewBox="0 0 32 32" fill="none" xmlns="http://www.w3.org/2000/svg">
<path d="M4 14.5119C4 13.6373 4.70901 12.9283 5.58362 12.9283H26.3345C27.2091 12.9283 27.9181 13.6373 27.9181 14.5119V15.4949C27.9181 15.651 27.8955 15.8019 27.8534 15.9444C27.7339 17.0624 27.4497 18.1599 27.0078 19.2024C26.4068 20.6202 25.5259 21.9085 24.4154 22.9936C23.6673 23.7246 22.8249 24.3538 21.9113 24.8661V26.5802C21.9113 27.3643 21.2756 28 20.4915 28H11.372C10.5879 28 9.95222 27.3643 9.95222 26.5802V24.8353C9.05957 24.3286 8.23585 23.71 7.50272 22.9936C6.39222 21.9085 5.51133 20.6202 4.91033 19.2024C4.46843 18.1599 4.18422 17.0624 4.06471 15.9444C4.0226 15.8019 4 15.651 4 15.4949V14.5119Z" fill="black"/>
<path d="M15.3038 4.84642C15.2058 4.41262 15.5356 4 15.9804 4H16.8005C17.1296 4 17.4217 4.21057 17.5258 4.52275L17.5732 4.66514C17.5892 4.71306 17.6003 4.76272 17.6072 4.81276C17.7453 5.81351 18.0975 6.32394 18.7986 7.19454C20.0612 8.60188 20.396 9.49454 20.4717 10.7437C20.4973 11.1653 20.1489 11.5085 19.7264 11.5085H18.957C18.5589 11.5085 18.2365 11.2014 18.1695 10.8091C18.0505 10.113 17.8155 9.58782 17.2423 8.83276C15.9656 7.55137 15.5067 6.69711 15.3038 4.84642Z" fill="black"/>
<path d="M10.0341 4.84642C9.93617 4.41262 10.266 4 10.7107 4H11.5309C11.86 4 12.1521 4.21057 12.2562 4.52275L12.3036 4.66514C12.3196 4.71306 12.3306 4.76272 12.3375 4.81276C12.4756 5.81351 12.8278 6.32394 13.529 7.19454C14.7916 8.60188 15.1264 9.49454 15.2021 10.7437C15.2277 11.1653 14.8792 11.5085 14.4568 11.5085H13.6873C13.2893 11.5085 12.9669 11.2014 12.8999 10.8091C12.7809 10.113 12.5459 9.58782 11.9727 8.83276C10.696 7.55137 10.237 6.69711 10.0341 4.84642Z" fill="black"/>
</svg>
