<svg width="32" height="32" viewBox="0 0 32 32" fill="none" xmlns="http://www.w3.org/2000/svg">
<path d="M27.9373 13.0687C27.7805 12.5614 27.3498 12.2026 26.8396 12.1535L19.9122 11.4967L17.173 4.8062C16.9712 4.31641 16.5112 4 16.0001 4C15.4887 4 15.0287 4.31741 14.8269 4.8084L12.0879 11.4979L5.15931 12.1545C4.65029 12.2026 4.21956 12.5614 4.06258 13.0687C3.90484 13.5761 4.0511 14.1312 4.43588 14.4826L9.67276 19.2738L8.12846 26.3702C8.0157 26.8918 8.21001 27.4305 8.62523 27.7447C8.84672 27.9149 9.10918 28 9.37163 28C9.59848 28 9.82438 27.9369 10.0261 27.8102L16.0001 24.0827L21.9728 27.8092C22.4099 28.0829 22.9608 28.0589 23.3749 27.7459C23.7899 27.4317 23.9844 26.8928 23.8715 26.3712L22.3273 19.275L27.5642 14.4836C27.9488 14.1324 28.0953 13.5771 27.9373 13.0687Z" fill="black"/>
</svg>
