<svg width="32" height="32" viewBox="0 0 32 32" fill="none" xmlns="http://www.w3.org/2000/svg">
<path d="M27.5099 5.56475C27.3654 5.02133 27.0172 4.56665 26.5305 4.28497C25.5249 3.7011 24.2312 4.04357 23.6464 5.04861L20.5565 10.3626C20.112 11.1273 20.1953 12.082 20.7446 12.7557L19.385 14.7596L8.98964 25.1548C8.715 25.4294 8.715 25.8746 8.98964 26.1493C10.2235 27.3831 11.8442 28.0001 13.465 28.0001C15.0857 28.0001 16.7065 27.3832 17.9403 26.1493L20.4266 23.663C21.6221 22.4676 22.2804 20.8782 22.2804 19.1876C22.2804 17.6942 21.7662 16.2798 20.8222 15.1461L21.9478 13.4873C22.0899 13.5169 22.2335 13.5321 22.3765 13.5321C23.104 13.5321 23.813 13.1562 24.2043 12.4836L27.2943 7.16933C27.5785 6.67995 27.655 6.1101 27.5099 5.56475Z" fill="black"/>
<path d="M9.78943 19.2658C9.71331 18.8849 9.34285 18.638 8.96195 18.7141C8.63275 18.7799 8.30771 18.6815 8.07034 18.4441C7.83292 18.2067 7.73453 17.8817 7.80039 17.5525C7.9577 16.766 7.71297 15.9578 7.14578 15.3906C6.57855 14.8234 5.77052 14.5787 4.98381 14.736C4.60296 14.8122 4.35597 15.1827 4.43214 15.5635C4.50832 15.9444 4.87877 16.1915 5.25963 16.1152C5.58883 16.0495 5.91381 16.1477 6.15123 16.3851C6.38866 16.6226 6.48705 16.9475 6.42123 17.2767C6.26392 18.0633 6.50861 18.8715 7.07579 19.4387C7.52978 19.8927 8.13812 20.1401 8.76634 20.14C8.92285 20.14 9.08082 20.1247 9.23781 20.0933C9.61857 20.0171 9.8656 19.6466 9.78943 19.2658Z" fill="black"/>
<path d="M12.2757 16.7796C12.1996 16.3987 11.8292 16.1517 11.4482 16.2279C11.1191 16.2936 10.7941 16.1954 10.5567 15.958C10.3193 15.7205 10.2209 15.3955 10.2867 15.0663C10.444 14.2798 10.1993 13.4716 9.63212 12.9044C9.06494 12.3372 8.25667 12.0925 7.4702 12.2498C7.08934 12.326 6.84236 12.6964 6.91853 13.0773C6.99461 13.4582 7.36506 13.7051 7.74597 13.629C8.07527 13.5632 8.4002 13.6615 8.63758 13.899C8.875 14.1364 8.97339 14.4614 8.90753 14.7906C8.75027 15.5771 8.99495 16.3853 9.56214 16.9526C10.0161 17.4065 10.6245 17.6538 11.2526 17.6538C11.4092 17.6538 11.5671 17.6385 11.7241 17.6071C12.105 17.5308 12.3519 17.1604 12.2757 16.7796Z" fill="black"/>
<path d="M14.762 14.2933C14.6858 13.9125 14.3154 13.6655 13.9345 13.7416C13.6054 13.8075 13.2803 13.7091 13.0429 13.4717C12.8055 13.2343 12.7071 12.9093 12.773 12.5801C12.9303 11.7935 12.6856 10.9854 12.1184 10.4181C11.5512 9.85093 10.7429 9.60611 9.95645 9.76356C9.57564 9.83973 9.32861 10.2102 9.40478 10.591C9.48091 10.9719 9.85131 11.2189 10.2323 11.1427C10.5614 11.077 10.8865 11.1752 11.1239 11.4127C11.3613 11.6501 11.4597 11.9751 11.3938 12.3043C11.2365 13.0908 11.4812 13.899 12.0484 14.4662C12.5024 14.9202 13.1108 15.1676 13.7388 15.1676C13.8954 15.1676 14.0533 15.1522 14.2103 15.1208C14.5912 15.0446 14.8382 14.6741 14.762 14.2933Z" fill="black"/>
</svg>
